<svg width="40" height="40" viewBox="0 0 40 40" fill="none" xmlns="http://www.w3.org/2000/svg">
<rect width="40" height="40" rx="20" fill="#77878F"/>
<path d="M19.5535 15.5821L21.1003 14.0353C21.4195 13.7159 21.7984 13.4624 22.2156 13.2895C22.6327 13.1165 23.0798 13.0274 23.5313 13.0273C23.9829 13.0272 24.43 13.1161 24.8472 13.2889C25.2645 13.4616 25.6435 13.7149 25.9628 14.0342C26.2821 14.3535 26.5354 14.7325 26.7081 15.1497C26.8809 15.5669 26.9697 16.0141 26.9696 16.4656C26.9695 16.9172 26.8805 17.3643 26.7075 17.7814C26.5346 18.1985 26.2811 18.5775 25.9617 18.8967L23.752 21.1064C23.4328 21.4256 23.0538 21.6788 22.6368 21.8515C22.2197 22.0243 21.7727 22.1132 21.3213 22.1132C20.8699 22.1132 20.4229 22.0243 20.0058 21.8515C19.5888 21.6788 19.2098 21.4256 18.8906 21.1064" stroke="white" stroke-width="1.2" stroke-linecap="round" stroke-linejoin="round"/>
<path d="M20.4395 24.4178L18.8927 25.9646C18.5736 26.2841 18.1946 26.5375 17.7775 26.7104C17.3604 26.8834 16.9133 26.9725 16.4617 26.9726C16.0102 26.9727 15.563 26.8838 15.1458 26.711C14.7286 26.5383 14.3496 26.285 14.0303 25.9657C13.711 25.6464 13.4577 25.2674 13.2849 24.8502C13.1122 24.433 13.0233 23.9858 13.0234 23.5343C13.0235 23.0827 13.1126 22.6356 13.2856 22.2185C13.4585 21.8014 13.7119 21.4224 14.0314 21.1032L16.2411 18.8935C16.5603 18.5743 16.9392 18.3211 17.3563 18.1484C17.7734 17.9756 18.2204 17.8867 18.6718 17.8867C19.1232 17.8867 19.5702 17.9756 19.9873 18.1484C20.4043 18.3211 20.7833 18.5743 21.1025 18.8935" stroke="white" stroke-width="1.2" stroke-linecap="round" stroke-linejoin="round"/>
</svg>
