<svg width="40" height="40" viewBox="0 0 40 40" fill="none" xmlns="http://www.w3.org/2000/svg">
<rect width="40" height="40" rx="20" fill="#0077B5"/>
<g clip-path="url(#clip0_145_13065)">
<path d="M27.9929 28.0015V28.0008H27.9969V22.1328C27.9969 19.2621 27.3789 17.0508 24.0229 17.0508C22.4096 17.0508 21.3269 17.9361 20.8849 18.7755H20.8383V17.3188H17.6562V28.0008H20.9696V22.7115C20.9696 21.3188 21.2336 19.9721 22.9583 19.9721C24.6576 19.9721 24.6829 21.5615 24.6829 22.8008V28.0015H27.9929Z" fill="white"/>
<path d="M12.2656 17.3164H15.583V27.9984H12.2656V17.3164Z" fill="white"/>
<path d="M13.9213 12C12.8607 12 12 12.8607 12 13.9213C12 14.982 12.8607 15.8607 13.9213 15.8607C14.982 15.8607 15.8427 14.982 15.8427 13.9213C15.842 12.8607 14.9813 12 13.9213 12V12Z" fill="white"/>
</g>
<defs>
<clipPath id="clip0_145_13065">
<rect width="16" height="16" fill="white" transform="translate(12 12)"/>
</clipPath>
</defs>
</svg>
