<svg width="40" height="40" viewBox="0 0 40 40" fill="none" xmlns="http://www.w3.org/2000/svg">
<rect width="40" height="40" rx="20" fill="#1DA1F2"/>
<path d="M17.0038 26.4036C23.0081 26.4036 26.2917 21.4577 26.2917 17.1689C26.2917 17.0284 26.2888 16.8886 26.2824 16.7494C26.9214 16.2897 27.4728 15.7206 27.9108 15.0687C27.3259 15.3272 26.6965 15.5012 26.0362 15.5797C26.7101 15.1779 27.2275 14.5422 27.4716 13.7845C26.8308 14.1625 26.1298 14.4289 25.3988 14.5723C24.8031 13.9414 23.955 13.5469 23.016 13.5469C21.2133 13.5469 19.7514 15.0004 19.7514 16.7921C19.7514 17.0468 19.7801 17.2945 19.8361 17.5321C17.123 17.3964 14.7173 16.1049 13.1072 14.141C12.8172 14.6364 12.6647 15.1993 12.6652 15.7724C12.6652 16.8984 13.2415 17.8925 14.1179 18.474C13.5995 18.4583 13.0925 18.3191 12.6395 18.0681C12.639 18.0817 12.639 18.095 12.639 18.1096C12.639 19.6814 13.7642 20.9938 15.2579 21.2911C14.9773 21.3671 14.6879 21.4055 14.3971 21.4053C14.1871 21.4053 13.9825 21.3848 13.7836 21.3468C14.1992 22.6364 15.4043 23.5749 16.833 23.6011C15.7157 24.4718 14.3083 24.9904 12.7787 24.9904C12.5184 24.9906 12.2584 24.9756 12 24.9454C13.4447 25.8661 15.1602 26.4033 17.0039 26.4033" fill="white"/>
</svg>
