<?xml version="1.0" encoding="utf-8"?>
<!-- Uploaded to: SVG Repo, www.svgrepo.com, Generator: SVG Repo Mixer Tools -->
<svg fill="white" version="1.1" id="Layer_1" xmlns="http://www.w3.org/2000/svg" xmlns:xlink="http://www.w3.org/1999/xlink" 
	 width="800px" height="800px" viewBox="0 0 198 256" enable-background="new 0 0 198 256" xml:space="preserve">
<path d="M177.7,46.709l10.867-29.074l-16.023-5.996l-5.355,14.343L154.926,2L71.43,34.603l5.502,14.269l12.905-5.092l-24.475,65.436
	h98.385l12.201-32.624l6.237,12.253l13.671-6.793L177.7,46.709z M132.97,86.431l-19.666-7.35l7.361-19.677l19.666,7.36
	L132.97,86.431z M190.227,115.505l-9.79,41.806c-2.587,10.892-12.213,18.499-23.407,18.499H70.977l3.386,14.11
	c1.299,5.415,6.097,9.196,11.665,9.196h85.28v12.029h-85.28c-11.153,0-20.76-7.574-23.362-18.418L36.274,82.757
	c-1.3-5.415-6.097-9.197-11.665-9.197H2.145V61.531h22.463c11.152,0,20.76,7.574,23.362,18.419l8.906,35.555H190.227z
	 M73.306,236.708c0,9.551,7.742,17.292,17.292,17.292s17.292-7.742,17.292-17.292c0-9.551-7.742-17.292-17.292-17.292
	S73.306,227.157,73.306,236.708z M136.459,236.708c0,9.551,7.742,17.292,17.292,17.292c9.551,0,17.292-7.742,17.292-17.292
	c0-9.551-7.742-17.292-17.292-17.292C144.201,219.416,136.459,227.157,136.459,236.708z"/>
</svg>