<svg width="21" height="21" viewBox="0 0 21 21" fill="none" xmlns="http://www.w3.org/2000/svg">
<path d="M2.8324 2H7.3224L8.7694 5.618L6.4444 7.168C6.30749 7.25935 6.19523 7.38308 6.11761 7.52822C6.03998 7.67335 5.99938 7.83541 5.9994 8C6.0024 8.094 5.9994 8.001 5.9994 8.001V8.022C5.99999 8.06672 6.00199 8.11141 6.0054 8.156C6.0114 8.238 6.0214 8.349 6.0404 8.486C6.0794 8.756 6.1544 9.128 6.3004 9.566C6.5944 10.446 7.1704 11.585 8.2924 12.707C9.4144 13.829 10.5534 14.405 11.4324 14.699C11.8714 14.845 12.2424 14.919 12.5144 14.959C12.6679 14.9804 12.8225 14.9938 12.9774 14.999L12.9904 15H12.9984C12.9984 15 13.1104 14.994 12.9994 15C13.1851 14.9999 13.367 14.9481 13.5249 14.8504C13.6828 14.7528 13.8104 14.6131 13.8934 14.447L14.5634 13.107L18.9994 13.847V18.167C16.8884 18.472 11.1864 18.773 6.7064 14.293C2.2264 9.813 2.5264 4.11 2.8324 2ZM8.0724 8.486L9.8794 7.282C10.2611 7.02737 10.5437 6.64922 10.6797 6.21096C10.8157 5.77271 10.7969 5.30102 10.6264 4.875L9.1794 1.257C9.03091 0.885905 8.77464 0.567815 8.44364 0.343762C8.11264 0.119709 7.7221 -2.67934e-05 7.3224 4.49722e-09H2.7804C1.8714 4.49722e-09 1.0164 0.631 0.867402 1.617C0.527402 3.859 0.066402 10.481 5.2924 15.707C10.5184 20.933 17.1404 20.471 19.3824 20.132C20.3684 19.982 20.9994 19.128 20.9994 18.219V13.847C20.9995 13.3736 20.8316 12.9155 20.5256 12.5542C20.2196 12.1929 19.7954 11.9519 19.3284 11.874L14.8924 11.135C14.4705 11.0646 14.0371 11.1313 13.6559 11.3253C13.2747 11.5193 12.9658 11.8304 12.7744 12.213L12.4284 12.906C12.306 12.8759 12.1849 12.8408 12.0654 12.801C11.4454 12.595 10.5844 12.171 9.7064 11.293C8.8284 10.415 8.4044 9.554 8.1984 8.933C8.14921 8.78621 8.10749 8.63702 8.0734 8.486H8.0724Z" fill="#6D6D6D"/>
</svg>
