<svg width="87" height="79" viewBox="0 0 87 79" fill="none" xmlns="http://www.w3.org/2000/svg">
<path d="M44.3526 69.9181C43.6551 70.6156 42.4151 70.7319 41.6014 69.9181C41.2384 69.5523 41.0347 69.0578 41.0347 68.5425C41.0347 68.0271 41.2384 67.5327 41.6014 67.1669L54.7376 54.0306L49.2739 48.5669L36.1376 61.7031C35.4014 62.4781 34.1614 62.4394 33.3864 61.7031C33.0234 61.3373 32.8197 60.8428 32.8197 60.3275C32.8197 59.8121 33.0234 59.3177 33.3864 58.9519L46.5226 45.8156L41.0589 40.3519L27.9226 53.4881C27.2251 54.1856 25.9851 54.3019 25.1714 53.4881C24.8166 53.118 24.6185 52.6252 24.6185 52.1125C24.6185 51.5998 24.8166 51.107 25.1714 50.7369L38.3076 37.6006L32.8051 32.1369L19.6689 45.2731C18.9714 45.9706 17.7314 46.0869 16.9176 45.2731C16.5629 44.903 16.3648 44.4102 16.3648 43.8975C16.3648 43.3848 16.5629 42.892 16.9176 42.5219L33.8901 25.5494L41.1364 32.7569C44.8176 36.4381 51.1726 36.3994 54.8539 32.7569C58.6514 28.9594 58.6514 22.8369 54.8539 19.0394L47.6464 11.8319L48.7314 10.7469C51.7539 7.72437 56.6751 7.72437 59.6976 10.7469L76.1276 27.1769C79.1501 30.1994 79.1501 35.1206 76.1276 38.1431L44.3526 69.9181ZM81.5914 43.6456C84.4944 40.7343 86.1245 36.7907 86.1245 32.6794C86.1245 28.568 84.4944 24.6245 81.5914 21.7131L65.1614 5.28312C62.2501 2.38016 58.3065 0.75 54.1951 0.75C50.0838 0.75 46.1402 2.38016 43.2289 5.28312L42.1439 6.36812L41.0589 5.28312C38.1476 2.38016 34.204 0.75 30.0926 0.75C25.9813 0.75 22.0377 2.38016 19.1264 5.28312L5.4089 19.0006C2.78746 21.6131 1.18953 25.0789 0.905136 28.7689C0.620743 32.4589 1.66873 36.1285 3.8589 39.1119L9.47764 33.4931C8.72858 32.0305 8.46378 30.3677 8.72149 28.7448C8.97921 27.1219 9.74609 25.6229 10.9114 24.4644L24.6289 10.7469C27.6514 7.72437 32.5726 7.72437 35.5951 10.7469L49.3901 24.5419C50.0876 25.2394 50.2039 26.4794 49.3901 27.2931C48.5764 28.1069 47.3364 27.9906 46.6389 27.2931L33.8901 14.5831L11.4151 37.0194C7.61764 40.7781 7.61764 46.9394 11.4151 50.7369C12.9264 52.2481 14.8639 53.1781 16.9176 53.4494C17.189 55.5331 18.1418 57.4685 19.6276 58.9544C21.1135 60.4402 23.0489 61.393 25.1326 61.6644C25.404 63.7481 26.3568 65.6835 27.8426 67.1694C29.3285 68.6552 31.2639 69.608 33.3476 69.8794C33.6189 71.9719 34.5489 73.8706 36.0601 75.3819C37.8814 77.2031 40.3226 78.2106 42.9189 78.2106C45.5151 78.2106 47.9564 77.2031 49.7776 75.3819L81.5914 43.6456Z" fill="#E3BB59"/>
</svg>
