<svg width="30" height="26" viewBox="0 0 30 26" fill="none" xmlns="http://www.w3.org/2000/svg">
<path d="M21.25 0.5C18.7388 0.5 16.51 1.49125 15 3.195C13.49 1.49125 11.2612 0.5 8.75 0.5C6.56278 0.502646 4.46589 1.37269 2.91929 2.91929C1.37269 4.46589 0.502646 6.56278 0.5 8.75C0.5 17.7925 13.7262 25.0175 14.2887 25.3213C14.5073 25.439 14.7517 25.5006 15 25.5006C15.2483 25.5006 15.4927 25.439 15.7113 25.3213C16.2738 25.0175 29.5 17.7925 29.5 8.75C29.4974 6.56278 28.6273 4.46589 27.0807 2.91929C25.5341 1.37269 23.4372 0.502646 21.25 0.5ZM20.5637 18.295C18.8228 19.7723 16.9618 21.1019 15 22.27C13.0382 21.1019 11.1772 19.7723 9.43625 18.295C6.7275 15.9713 3.5 12.4275 3.5 8.75C3.5 7.35761 4.05312 6.02225 5.03769 5.03769C6.02225 4.05312 7.35761 3.5 8.75 3.5C10.975 3.5 12.8375 4.675 13.6112 6.5675C13.7239 6.84338 13.9161 7.07947 14.1634 7.24566C14.4108 7.41185 14.702 7.5006 15 7.5006C15.298 7.5006 15.5892 7.41185 15.8366 7.24566C16.0839 7.07947 16.2761 6.84338 16.3888 6.5675C17.1625 4.675 19.025 3.5 21.25 3.5C22.6424 3.5 23.9777 4.05312 24.9623 5.03769C25.9469 6.02225 26.5 7.35761 26.5 8.75C26.5 12.4275 23.2725 15.9713 20.5637 18.295Z" fill="#FFA800" fill-opacity="0.5"/>
</svg>
