<svg width="30" height="26" viewBox="0 0 30 26" fill="none" xmlns="http://www.w3.org/2000/svg">
  <path d="M21.25 0.5C18.7388 0.5 16.51 1.49125 15 3.195C13.49 1.49125 11.2612 0.5 8.75 0.5C6.56278 0.502646 4.46589 1.37269 2.91929 2.91929C1.37269 4.46589 0.502646 6.56278 0.5 8.75C0.5 17.7925 13.7262 25.0175 14.2887 25.3213C14.5073 25.439 14.7517 25.5006 15 25.5006C15.2483 25.5006 15.4927 25.439 15.7113 25.3213C16.2738 25.0175 29.5 17.7925 29.5 8.75C29.4974 6.56278 28.6273 4.46589 27.0807 2.91929C25.5341 1.37269 23.4372 0.502646 21.25 0.5Z" fill="#E3BB59"/>
</svg>