<svg width="27" height="25" viewBox="0 0 27 25" fill="none" xmlns="http://www.w3.org/2000/svg">
<path d="M14.8954 0.00152036C15.8406 -0.00193978 16.7859 0.00712274 17.7309 0.0287051L17.9822 0.0373547C18.2724 0.0472401 18.5586 0.0595967 18.9045 0.0744247C20.2828 0.136208 21.2232 0.3438 22.0483 0.64901C22.9033 0.962869 23.6235 1.38794 24.3437 2.07497C25.0022 2.69231 25.5119 3.43908 25.8373 4.26333C26.1572 5.05045 26.3748 5.94878 26.4396 7.26353C26.4552 7.59222 26.4681 7.86654 26.4785 8.14332L26.4862 8.38304C26.5093 9.28408 26.5192 10.1854 26.516 11.0867L26.5173 12.0085V13.6272C26.5205 14.5289 26.5106 15.4306 26.4875 16.3321L26.4798 16.5718C26.4694 16.8486 26.4565 17.1217 26.4409 17.4516C26.3761 18.7663 26.1559 19.6634 25.8373 20.4506C25.513 21.2757 25.0032 22.0231 24.3437 22.6402C23.696 23.2683 22.9127 23.7544 22.0483 24.0649C21.2232 24.3701 20.2828 24.5777 18.9045 24.6395C18.5586 24.6543 18.2724 24.6667 17.9822 24.6765L17.7309 24.684C16.7859 24.7059 15.8406 24.7154 14.8954 24.7124L13.929 24.7136H12.2334C11.2881 24.7167 10.3428 24.7072 9.39785 24.6852L9.14655 24.6778C8.83904 24.6671 8.5316 24.6548 8.22425 24.6407C6.84599 24.5789 5.90556 24.3689 5.07912 24.0649C4.2147 23.7552 3.43173 23.2689 2.78503 22.6402C2.12575 22.0227 1.61561 21.2754 1.29019 20.4506C0.970233 19.6634 0.752612 18.7663 0.687844 17.4516C0.673417 17.1584 0.660464 16.8651 0.648983 16.5718L0.642507 16.3321C0.618625 15.4306 0.607829 14.5289 0.610122 13.6272V11.0867C0.606507 10.1854 0.616007 9.28409 0.63862 8.38304L0.647688 8.14332C0.658051 7.86654 0.671004 7.59222 0.686549 7.26353C0.751317 5.94755 0.968937 5.05169 1.28889 4.26333C1.61451 3.43867 2.12565 2.69212 2.78633 2.0762C3.43258 1.44694 4.21506 0.959869 5.07912 0.64901C5.90556 0.3438 6.84469 0.136208 8.22425 0.0744247L9.14655 0.0373547L9.39785 0.0311766C10.3424 0.0084067 11.2872 -0.00189162 12.2321 0.000284781L14.8954 0.00152036ZM13.5637 6.17985C12.7056 6.16827 11.8535 6.31951 11.0572 6.62477C10.2608 6.93004 9.53599 7.38324 8.92484 7.95804C8.31369 8.53284 7.82839 9.21778 7.49715 9.97305C7.16591 10.7283 6.99533 11.5389 6.99533 12.3576C6.99533 13.1763 7.16591 13.9868 7.49715 14.7421C7.82839 15.4973 8.31369 16.1823 8.92484 16.7571C9.53599 17.3319 10.2608 17.7851 11.0572 18.0904C11.8535 18.3956 12.7056 18.5469 13.5637 18.5353C15.2815 18.5353 16.9289 17.8843 18.1435 16.7257C19.3582 15.567 20.0405 13.9955 20.0405 12.3569C20.0405 10.7184 19.3582 9.14687 18.1435 7.98821C16.9289 6.82954 15.2815 6.17985 13.5637 6.17985ZM13.5637 8.65118C14.0799 8.64211 14.5929 8.73125 15.0726 8.9134C15.5522 9.09555 15.9891 9.36706 16.3575 9.71206C16.726 10.0571 17.0187 10.4686 17.2185 10.9228C17.4183 11.3769 17.5213 11.8644 17.5214 12.3569C17.5215 12.8494 17.4187 13.337 17.219 13.7912C17.0193 14.2454 16.7268 14.6571 16.3585 15.0022C15.9901 15.3473 15.5534 15.6189 15.0738 15.8012C14.5941 15.9835 14.0812 16.0729 13.565 16.0639C12.5344 16.0639 11.5459 15.6734 10.8171 14.9782C10.0884 14.283 9.67894 13.3401 9.67894 12.3569C9.67894 11.3738 10.0884 10.4309 10.8171 9.7357C11.5459 9.0405 12.5344 8.64995 13.565 8.64995L13.5637 8.65118ZM20.3644 4.32635C19.9465 4.34231 19.5513 4.51189 19.2615 4.79958C18.9717 5.08727 18.8099 5.47075 18.8099 5.8697C18.8099 6.26865 18.9717 6.65213 19.2615 6.93982C19.5513 7.22751 19.9465 7.39709 20.3644 7.41305C20.7938 7.41305 21.2057 7.25031 21.5093 6.96065C21.813 6.67098 21.9836 6.27811 21.9836 5.86846C21.9836 5.45881 21.813 5.06594 21.5093 4.77628C21.2057 4.48661 20.7938 4.32388 20.3644 4.32388V4.32635Z" fill="#6D6D6D"/>
</svg>
