<svg width="24" height="23" viewBox="0 0 24 23" fill="none" xmlns="http://www.w3.org/2000/svg">
<path d="M16.2344 9.01172H20.4531V4.79297" stroke="#404040" stroke-width="1.6875" stroke-linecap="round" stroke-linejoin="round"/>
<path d="M6.53125 6.03238C7.24878 5.3138 8.10094 4.74373 9.03899 4.35478C9.97704 3.96583 10.9826 3.76562 11.998 3.76562C13.0135 3.76562 14.0191 3.96583 14.9571 4.35478C15.8951 4.74373 16.7473 5.3138 17.4648 6.03238L20.4531 9.01187" stroke="#404040" stroke-width="1.6875" stroke-linecap="round" stroke-linejoin="round"/>
<path d="M7.76563 13.9883H3.54688V18.207" stroke="#404040" stroke-width="1.6875" stroke-linecap="round" stroke-linejoin="round"/>
<path d="M17.4687 16.9678C16.7512 17.6864 15.8991 18.2564 14.961 18.6454C14.023 19.0343 13.0174 19.2345 12.002 19.2345C10.9865 19.2345 9.98094 19.0343 9.0429 18.6454C8.10485 18.2564 7.25269 17.6864 6.53516 16.9678L3.54688 13.9883" stroke="#404040" stroke-width="1.6875" stroke-linecap="round" stroke-linejoin="round"/>
</svg>
