<svg width="25" height="24" viewBox="0 0 25 24" fill="none" xmlns="http://www.w3.org/2000/svg">
<path d="M5.75 21.75H19.25" stroke="#2DA5F3" stroke-width="1.5" stroke-linecap="round" stroke-linejoin="round"/>
<path d="M20 9.75C20 16.5 12.5 21.75 12.5 21.75C12.5 21.75 5 16.5 5 9.75C5 7.76088 5.79018 5.85322 7.1967 4.4467C8.60322 3.04018 10.5109 2.25 12.5 2.25C14.4891 2.25 16.3968 3.04018 17.8033 4.4467C19.2098 5.85322 20 7.76088 20 9.75V9.75Z" stroke="#2DA5F3" stroke-width="1.5" stroke-linecap="round" stroke-linejoin="round"/>
<path d="M12.5 12.75C14.1569 12.75 15.5 11.4069 15.5 9.75C15.5 8.09315 14.1569 6.75 12.5 6.75C10.8431 6.75 9.5 8.09315 9.5 9.75C9.5 11.4069 10.8431 12.75 12.5 12.75Z" stroke="#2DA5F3" stroke-width="1.5" stroke-linecap="round" stroke-linejoin="round"/>
</svg>
