<svg width="63" height="83" viewBox="0 0 63 83" fill="none" xmlns="http://www.w3.org/2000/svg">
<path d="M31.5 62.875C29.4446 62.875 27.4733 62.0585 26.0199 60.6051C24.5665 59.1517 23.75 57.1804 23.75 55.125C23.75 50.8237 27.1987 47.375 31.5 47.375C33.5554 47.375 35.5267 48.1915 36.9801 49.6449C38.4335 51.0983 39.25 53.0696 39.25 55.125C39.25 57.1804 38.4335 59.1517 36.9801 60.6051C35.5267 62.0585 33.5554 62.875 31.5 62.875ZM54.75 74.5V35.75H8.25V74.5H54.75ZM54.75 28C56.8054 28 58.7767 28.8165 60.2301 30.2699C61.6835 31.7233 62.5 33.6946 62.5 35.75V74.5C62.5 76.5554 61.6835 78.5267 60.2301 79.9801C58.7767 81.4335 56.8054 82.25 54.75 82.25H8.25C6.19457 82.25 4.22333 81.4335 2.76992 79.9801C1.31652 78.5267 0.5 76.5554 0.5 74.5V35.75C0.5 31.4487 3.94875 28 8.25 28H12.125V20.25C12.125 15.1114 14.1663 10.1833 17.7998 6.54981C21.4333 2.91629 26.3614 0.875 31.5 0.875C34.0444 0.875 36.5638 1.37615 38.9145 2.34983C41.2652 3.32352 43.4011 4.75067 45.2002 6.54981C46.9993 8.34894 48.4265 10.4848 49.4002 12.8355C50.3739 15.1862 50.875 17.7056 50.875 20.25V28H54.75ZM31.5 8.625C28.4169 8.625 25.46 9.84977 23.2799 12.0299C21.0998 14.21 19.875 17.1669 19.875 20.25V28H43.125V20.25C43.125 17.1669 41.9002 14.21 39.7201 12.0299C37.54 9.84977 34.5831 8.625 31.5 8.625Z" fill="#E3BB59"/>
</svg>
