<svg width="26" height="18" viewBox="0 0 26 18" fill="none" xmlns="http://www.w3.org/2000/svg">
<path d="M23.5 0.25H2.5C2.03587 0.25 1.59075 0.434374 1.26256 0.762563C0.934374 1.09075 0.75 1.53587 0.75 2V16C0.75 16.4641 0.934374 16.9092 1.26256 17.2374C1.59075 17.5656 2.03587 17.75 2.5 17.75H23.5C23.9641 17.75 24.4092 17.5656 24.7374 17.2374C25.0656 16.9092 25.25 16.4641 25.25 16V2C25.25 1.53587 25.0656 1.09075 24.7374 0.762563C24.4092 0.434374 23.9641 0.25 23.5 0.25ZM21.575 2L13 7.9325L4.425 2H21.575ZM2.5 16V2.79625L12.5013 9.7175C12.6477 9.81911 12.8217 9.87356 13 9.87356C13.1783 9.87356 13.3523 9.81911 13.4987 9.7175L23.5 2.79625V16H2.5Z" fill="white"/>
</svg>
