<svg width="38" height="32" viewBox="0 0 38 32" fill="none" xmlns="http://www.w3.org/2000/svg">
<path d="M0.78829 0.78829H33.1322C34.9059 0.78829 36.3439 2.22622 36.3439 4V28C36.3439 29.7738 34.9059 31.2117 33.1322 31.2117H0.78829V0.78829Z" stroke="#FBFBFB" stroke-width="1.57658"/>
<path d="M26.6795 24.117L22.5703 20.0078M22.5703 20.0078C23.2299 19.3483 23.753 18.5653 24.11 17.7036C24.4669 16.8418 24.6506 15.9182 24.6506 14.9855C24.6506 14.0527 24.4669 13.1291 24.11 12.2674C23.753 11.4057 23.2299 10.6227 22.5703 9.96314C21.9108 9.30359 21.1278 8.78041 20.2661 8.42347C19.4043 8.06653 18.4807 7.88281 17.548 7.88281C16.6152 7.88281 15.6916 8.06653 14.8299 8.42347C13.9682 8.78041 13.1852 9.30359 12.5256 9.96314C11.1936 11.2951 10.4453 13.1017 10.4453 14.9855C10.4453 16.8692 11.1936 18.6758 12.5256 20.0078C13.8576 21.3398 15.6642 22.0881 17.548 22.0881C19.4317 22.0881 21.2383 21.3398 22.5703 20.0078Z" stroke="#FBFBFB" stroke-width="1.99772" stroke-linecap="round" stroke-linejoin="round"/>
</svg>
