<svg width="15" height="15" viewBox="0 0 15 15" fill="none" xmlns="http://www.w3.org/2000/svg">
<path d="M3.50897 13.521C3.73889 13.6951 4.03107 13.6333 4.37906 13.3806L7.34833 11.2026L10.3233 13.3806C10.6713 13.6333 10.9575 13.6951 11.1934 13.521C11.4233 13.3468 11.4741 13.0606 11.3338 12.6509L10.1605 9.1595L13.158 7.00403C13.506 6.75711 13.6463 6.4987 13.5565 6.21825C13.4667 5.94882 13.2028 5.81398 12.7708 5.81973L9.09401 5.842L7.97701 2.33387C7.84241 1.91858 7.64051 1.71094 7.34833 1.71094C7.06213 1.71094 6.86 1.91858 6.72516 2.33387L5.60815 5.842L1.93165 5.81973C1.49936 5.81398 1.23568 5.94882 1.14587 6.21825C1.05031 6.49894 1.19616 6.75711 1.54439 7.00403L4.54168 9.1595L3.36863 12.6509C3.22828 13.0606 3.27882 13.3468 3.50897 13.521Z" fill="#E3BB59"/>
</svg>
