<svg xmlns="http://www.w3.org/2000/svg" viewBox="0 0 32 32" fill="#ffffff" transform="matrix(2,0,0,2,-4,-4)">
  <g id="SvgjsG3802" featurekey="UqkkrJ-0">
    <path d="M13,24H5c-1.105,0-1.75,0.875-2,2l-1,4h14l-1-4C14.688,24.656,14.105,24,13,24z"></path>
    <path d="M29,24h-8c-1.105,0-1.75,0.875-2,2l-1,4h14l-1-4C30.688,24.656,30.105,24,29,24z"></path>
    <path d="M13,16H5c-1.105,0-1.75,0.875-2,2l-1,4h14l-1-4C14.688,16.656,14.105,16,13,16z"></path>
    <path d="M19,18l-1,4h14l-1-4c-0.312-1.344-0.895-2-2-2h-8C19.895,16,19.25,16.875,19,18z"></path>
    <path d="M23,10c-0.312-1.344-0.895-2-2-2h-8c-1.105,0-1.75,0.875-2,2l-1,4h14L23,10z"></path>
    <path d="M11,6c0.551,0,1-0.445,1-1V3c0-0.551-0.449-1-1-1c-0.555,0-1,0.449-1,1v2C10,5.555,10.445,6,11,6z"></path>
    <path d="M7.23,6.59c0.387,0.387,1.012,0.387,1.395,0c0.387-0.387,0.387-1.012,0-1.395L7.23,3.801c-0.383-0.387-1.008-0.387-1.395,0 c-0.383,0.383-0.383,1.008,0,1.395L7.23,6.59z"></path>
    <path d="M5,10h2c0.551,0,1-0.445,1-1c0-0.551-0.449-1-1-1H5C4.445,8,4,8.449,4,9C4,9.555,4.445,10,5,10z"></path>
  </g>
</svg>