<svg width="93" height="93" viewBox="0 0 93 93" fill="none" xmlns="http://www.w3.org/2000/svg">
<path d="M46.5 11.6245L48.0267 8.05954C47.5443 7.85273 47.0249 7.74609 46.5 7.74609C45.9751 7.74609 45.4557 7.85273 44.9732 8.05954L46.5 11.6245ZM46.5 81.3745L44.578 84.738C45.1634 85.0724 45.8259 85.2483 46.5 85.2483C47.1741 85.2483 47.8366 85.0724 48.422 84.738L46.5 81.3745ZM44.9732 8.06342L20.1965 18.677L23.25 25.807L48.0267 15.1895L44.9732 8.06342ZM15.5 25.8032V52.3857H23.25V25.8032H15.5ZM29.1671 75.934L44.578 84.738L48.422 78.011L33.0111 69.2032L29.1671 75.934ZM48.422 84.738L63.8329 75.934L59.9889 69.2032L44.578 78.011L48.422 84.738ZM77.5 52.3818V25.807H69.75V52.3895L77.5 52.3818ZM72.8035 18.6809L48.0267 8.06342L44.9732 15.1857L69.75 25.807L72.8035 18.6809ZM77.5 25.807C77.4998 24.2906 77.0548 22.8075 76.22 21.5415C75.3852 20.2755 74.1973 19.2784 72.8035 18.6809L69.75 25.807H77.5ZM63.8329 75.934C67.9855 73.5611 71.4368 70.1363 73.837 65.9994C76.2372 61.8625 77.5009 57.1645 77.5 52.3818H69.75C69.7496 55.7976 68.8461 59.1525 67.1313 62.1066C65.4164 65.0607 62.951 67.5089 59.985 69.2032L63.8329 75.934ZM15.5 52.3818C15.4998 57.1639 16.7638 61.861 19.164 65.9972C21.5641 70.1333 25.0151 73.5614 29.1671 75.934L33.0111 69.2032C30.047 67.5091 27.5831 65.0619 25.869 62.1093C24.1549 59.1567 23.2514 55.8036 23.25 52.3895L15.5 52.3818ZM20.1965 18.677C18.8021 19.2748 17.6138 20.2725 16.779 21.5393C15.9441 22.806 15.4994 24.2899 15.5 25.807H23.25L20.1965 18.677Z" fill="#E3BB59"/>
<path d="M58.125 38.75L42.625 54.25L34.875 46.5" stroke="#E3BB59" stroke-width="8" stroke-linecap="round" stroke-linejoin="round"/>
</svg>
