<svg width="28" height="22" viewBox="0 0 28 22" fill="none" xmlns="http://www.w3.org/2000/svg">
<path d="M27.7005 3.32534C26.7031 3.75782 25.6279 4.04202 24.5139 4.17795C25.6538 3.52304 26.5347 2.48508 26.9492 1.23706C25.874 1.85489 24.6823 2.28738 23.4258 2.53451C22.4025 1.47184 20.9646 0.854004 19.3325 0.854004C16.2884 0.854004 13.8013 3.22648 13.8013 6.15501C13.8013 6.57514 13.8531 6.98291 13.9438 7.36596C9.33229 7.14355 5.226 5.03056 2.49279 1.83018C2.01351 2.60865 1.74148 3.52304 1.74148 4.48686C1.74148 6.328 2.713 7.95908 4.21562 8.88583C3.29591 8.88583 2.44097 8.6387 1.68967 8.268V8.30507C1.68967 10.8753 3.6068 13.0253 6.14571 13.5072C5.33057 13.72 4.47481 13.7496 3.64566 13.5937C3.99749 14.6471 4.68653 15.5688 5.61592 16.2293C6.54532 16.8898 7.66833 17.2559 8.8271 17.276C6.86286 18.7593 4.42805 19.5611 1.92283 19.5496C1.48241 19.5496 1.04199 19.5249 0.601562 19.4755C3.06275 20.983 5.99026 21.8603 9.12504 21.8603C19.3325 21.8603 24.9414 13.7791 24.9414 6.77284C24.9414 6.53807 24.9414 6.31565 24.9284 6.08087C26.0165 5.33947 26.9492 4.40037 27.7005 3.32534Z" fill="#E3BB59"/>
</svg>
