<svg width="16" height="16" viewBox="0 0 16 16" fill="none" xmlns="http://www.w3.org/2000/svg">
<path fill-rule="evenodd" clip-rule="evenodd" d="M8.71852 0.315572C8.62536 0.22002 8.51402 0.144082 8.39105 0.0922327C8.26808 0.0403835 8.13598 0.0136719 8.00252 0.0136719C7.86907 0.0136719 7.73697 0.0403835 7.614 0.0922327C7.49103 0.144082 7.37969 0.22002 7.28652 0.315572L6.64852 0.970572C6.52295 1.09959 6.36487 1.19232 6.19097 1.23896C6.01708 1.2856 5.83381 1.28443 5.66052 1.23557L4.78052 0.987572C4.65208 0.951425 4.51769 0.941352 4.38529 0.957944C4.25289 0.974537 4.12515 1.01746 4.00959 1.08418C3.89404 1.15091 3.793 1.24008 3.71245 1.34646C3.63189 1.45283 3.57343 1.57426 3.54052 1.70357L3.31452 2.58957C3.27022 2.76399 3.17966 2.92322 3.05242 3.05046C2.92517 3.17771 2.76594 3.26826 2.59152 3.31257L1.70552 3.53757C1.57621 3.57048 1.45479 3.62893 1.34841 3.70949C1.24204 3.79005 1.15286 3.89108 1.08614 4.00664C1.01941 4.1222 0.97649 4.24994 0.959897 4.38234C0.943305 4.51474 0.953379 4.64912 0.989525 4.77757L1.23752 5.65857C1.28639 5.83186 1.28756 6.01512 1.24092 6.18902C1.19427 6.36292 1.10155 6.521 0.972525 6.64657L0.317525 7.28457C0.221973 7.37773 0.146035 7.48908 0.0941858 7.61205C0.0423366 7.73502 0.015625 7.86712 0.015625 8.00057C0.015625 8.13402 0.0423366 8.26613 0.0941858 8.38909C0.146035 8.51206 0.221973 8.62341 0.317525 8.71657L0.972525 9.35557C1.10137 9.48105 1.19399 9.63896 1.24063 9.81266C1.28727 9.98636 1.28619 10.1694 1.23752 10.3426L0.989525 11.2226C0.953379 11.351 0.943305 11.4854 0.959897 11.6178C0.97649 11.7502 1.01941 11.8779 1.08614 11.9935C1.15286 12.1091 1.24204 12.2101 1.34841 12.2907C1.45479 12.3712 1.57621 12.4297 1.70552 12.4626L2.59152 12.6886C2.76594 12.7329 2.92517 12.8234 3.05242 12.9507C3.17966 13.0779 3.27022 13.2372 3.31452 13.4116L3.53952 14.2976C3.57232 14.427 3.6307 14.5485 3.71121 14.655C3.79172 14.7615 3.89274 14.8508 4.00831 14.9176C4.12388 14.9844 4.25165 15.0274 4.38411 15.0441C4.51656 15.0607 4.65101 15.0507 4.77952 15.0146L5.66052 14.7666C5.83372 14.7176 6.01693 14.7163 6.19082 14.7627C6.36472 14.8092 6.52284 14.9017 6.64852 15.0306L7.28652 15.6856C7.37969 15.7811 7.49103 15.8571 7.614 15.9089C7.73697 15.9608 7.86907 15.9875 8.00252 15.9875C8.13598 15.9875 8.26808 15.9608 8.39105 15.9089C8.51402 15.8571 8.62536 15.7811 8.71852 15.6856L9.35752 15.0306C9.48311 14.9019 9.64107 14.8095 9.81476 14.763C9.98846 14.7165 10.1715 14.7178 10.3445 14.7666L11.2245 15.0146C11.353 15.0507 11.4875 15.0607 11.6199 15.0441C11.7524 15.0274 11.8802 14.9844 11.9957 14.9176C12.1113 14.8508 12.2123 14.7615 12.2928 14.655C12.3734 14.5485 12.4317 14.427 12.4645 14.2976L12.6905 13.4116C12.7348 13.2372 12.8254 13.0779 12.9526 12.9507C13.0799 12.8234 13.2391 12.7329 13.4135 12.6886L14.2995 12.4636C14.4289 12.4308 14.5505 12.3724 14.6569 12.2919C14.7634 12.2114 14.8527 12.1104 14.9195 11.9948C14.9864 11.8792 15.0294 11.7514 15.046 11.619C15.0627 11.4865 15.0527 11.3521 15.0165 11.2236L14.7685 10.3436C14.7195 10.1704 14.7182 9.98716 14.7647 9.81327C14.8111 9.63938 14.9037 9.48125 15.0325 9.35557L15.6875 8.71657C15.7831 8.62341 15.859 8.51206 15.9109 8.38909C15.9627 8.26613 15.9894 8.13402 15.9894 8.00057C15.9894 7.86712 15.9627 7.73502 15.9109 7.61205C15.859 7.48908 15.7831 7.37773 15.6875 7.28457L15.0325 6.64657C14.9037 6.52089 14.8111 6.36276 14.7647 6.18887C14.7182 6.01498 14.7195 5.83177 14.7685 5.65857L15.0165 4.77857C15.0527 4.65006 15.0627 4.51561 15.046 4.38315C15.0294 4.2507 14.9864 4.12292 14.9195 4.00735C14.8527 3.89179 14.7634 3.79077 14.6569 3.71026C14.5505 3.62974 14.4289 3.57137 14.2995 3.53857L13.4135 3.31257C13.2391 3.26826 13.0799 3.17771 12.9526 3.05046C12.8254 2.92322 12.7348 2.76399 12.6905 2.58957L12.4655 1.70357C12.4326 1.57426 12.3742 1.45283 12.2936 1.34646C12.213 1.24008 12.112 1.15091 11.9965 1.08418C11.8809 1.01746 11.7532 0.974537 11.6208 0.957944C11.4884 0.941352 11.354 0.951425 11.2255 0.987572L10.3455 1.23557C10.1721 1.28463 9.98863 1.2859 9.81454 1.23925C9.64044 1.1926 9.48219 1.09977 9.35652 0.970572L8.71852 0.315572ZM11.7755 6.29057C11.9187 6.15239 12.0012 5.96298 12.0048 5.76401C12.0083 5.56503 11.9327 5.37279 11.7945 5.22957C11.6563 5.08635 11.4669 5.00389 11.268 5.00033C11.069 4.99677 10.8767 5.07239 10.7335 5.21057L6.59952 9.20257L5.28253 7.88757C5.14156 7.74701 4.95053 7.6682 4.75146 7.66848C4.55239 7.66876 4.36159 7.74811 4.22102 7.88907C4.08046 8.03003 4.00165 8.22106 4.00193 8.42013C4.00221 8.6192 4.08156 8.81001 4.22252 8.95057L6.06152 10.7846C6.20041 10.9233 6.38817 11.0021 6.58448 11.004C6.7808 11.0058 6.97002 10.9307 7.11153 10.7946L11.7755 6.29057Z" fill="#2176BD"/>
</svg>
