<svg width="27" height="18" viewBox="0 0 27 18" fill="none" xmlns="http://www.w3.org/2000/svg">
<path d="M11.066 13.0642L17.7889 9.35718L11.066 5.65018V13.0642ZM26.0404 3.38892C26.2088 3.96968 26.3254 4.74815 26.4031 5.73668C26.4938 6.72521 26.5326 7.57782 26.5326 8.31922L26.6103 9.35718C26.6103 12.0633 26.4031 14.0527 26.0404 15.3254C25.7165 16.4375 24.9652 17.1542 23.7994 17.4632C23.1906 17.6238 22.0766 17.735 20.3667 17.8091C18.6827 17.8956 17.1413 17.9327 15.7164 17.9327L13.6567 18.0068C8.22917 18.0068 4.84828 17.8091 3.51406 17.4632C2.34823 17.1542 1.59692 16.4375 1.27308 15.3254C1.10469 14.7447 0.988104 13.9662 0.910383 12.9777C0.819708 11.9892 0.780847 11.1365 0.780847 10.3951L0.703125 9.35718C0.703125 6.65107 0.910383 4.66165 1.27308 3.38892C1.59692 2.27682 2.34823 1.56013 3.51406 1.25121C4.12288 1.09058 5.23689 0.979366 6.94676 0.905226C8.63073 0.818729 10.1722 0.781659 11.5971 0.781659L13.6567 0.70752C19.0843 0.70752 22.4652 0.905226 23.7994 1.25121C24.9652 1.56013 25.7165 2.27682 26.0404 3.38892Z" fill="#E3BB59"/>
</svg>
