<svg width="57" height="56" viewBox="0 0 57 56" fill="none" xmlns="http://www.w3.org/2000/svg">
<path d="M28.5 39.6667C29.1611 39.6667 29.7157 39.4427 30.1637 38.9947C30.6117 38.5467 30.8349 37.9929 30.8333 37.3333C30.8318 36.6738 30.6078 36.12 30.1613 35.672C29.7149 35.224 29.1611 35 28.5 35C27.8389 35 27.2851 35.224 26.8387 35.672C26.3922 36.12 26.1682 36.6738 26.1667 37.3333C26.1651 37.9929 26.3891 38.5474 26.8387 38.997C27.2882 39.4466 27.842 39.6698 28.5 39.6667ZM26.1667 28C26.1667 29.2887 27.2113 30.3333 28.5 30.3333C29.7887 30.3333 30.8333 29.2887 30.8333 28V18.6667C30.8333 17.378 29.7887 16.3333 28.5 16.3333C27.2113 16.3333 26.1667 17.378 26.1667 18.6667V28ZM20.7165 49C20.0977 49 19.5042 48.7542 19.0666 48.3166L8.18342 37.4334C7.74583 36.9958 7.5 36.4023 7.5 35.7835V20.2165C7.5 19.5977 7.74583 19.0042 8.18342 18.5666L19.0666 7.68342C19.5042 7.24583 20.0977 7 20.7165 7H36.2835C36.9023 7 37.4958 7.24583 37.9334 7.68342L48.8166 18.5666C49.2542 19.0042 49.5 19.5977 49.5 20.2165V35.7835C49.5 36.4023 49.2542 36.9958 48.8166 37.4334L37.9334 48.3166C37.4958 48.7542 36.9023 49 36.2835 49H20.7165ZM21.0499 43.6499C21.4875 44.0875 22.081 44.3333 22.6998 44.3333H34.3002C34.919 44.3333 35.5125 44.0875 35.9501 43.6499L44.1499 35.4501C44.5875 35.0125 44.8333 34.419 44.8333 33.8002V22.1998C44.8333 21.581 44.5875 20.9875 44.1499 20.5499L35.9501 12.3501C35.5125 11.9125 34.919 11.6667 34.3002 11.6667H22.6998C22.081 11.6667 21.4875 11.9125 21.0499 12.3501L12.8501 20.5499C12.4125 20.9875 12.1667 21.581 12.1667 22.1998V33.8002C12.1667 34.419 12.4125 35.0125 12.8501 35.4501L21.0499 43.6499Z" fill="#C80B0B"/>
</svg>
