<svg width="56" height="56" viewBox="0 0 56 56" fill="none" xmlns="http://www.w3.org/2000/svg">
<path d="M20.1224 19.8337H9.6224C9.00356 19.8337 8.41006 19.5878 7.97248 19.1502C7.5349 18.7127 7.28906 18.1192 7.28906 17.5003V7.00033C7.28906 6.38149 7.5349 5.78799 7.97248 5.35041C8.41006 4.91282 9.00356 4.66699 9.6224 4.66699C10.2412 4.66699 10.8347 4.91282 11.2723 5.35041C11.7099 5.78799 11.9557 6.38149 11.9557 7.00033V15.167H20.1224C20.7412 15.167 21.3347 15.4128 21.7723 15.8504C22.2099 16.288 22.4557 16.8815 22.4557 17.5003C22.4557 18.1192 22.2099 18.7127 21.7723 19.1502C21.3347 19.5878 20.7412 19.8337 20.1224 19.8337Z" fill="#00AA30"/>
<path d="M48.9918 30.3324C48.373 30.3324 47.7795 30.0866 47.3419 29.649C46.9043 29.2114 46.6585 28.6179 46.6585 27.9991C46.6602 23.8914 45.3062 19.8979 42.8064 16.6383C40.3065 13.3788 36.8008 11.0355 32.8331 9.97205C28.8654 8.90859 24.6576 9.18445 20.8627 10.7568C17.0678 12.3292 13.898 15.1101 11.8451 18.6681C11.5351 19.2037 11.025 19.5942 10.427 19.7537C9.82907 19.9132 9.19224 19.8286 8.65663 19.5186C8.12103 19.2086 7.73052 18.6985 7.57102 18.1005C7.41152 17.5025 7.4961 16.8657 7.80613 16.3301C10.3734 11.8833 14.3364 8.40807 19.0804 6.4435C23.8243 4.47893 29.084 4.13486 34.0435 5.46467C39.0029 6.79448 43.3849 9.72383 46.5096 13.7983C49.6343 17.8727 51.327 22.8644 51.3251 27.9991C51.3251 28.6179 51.0793 29.2114 50.6417 29.649C50.2041 30.0866 49.6106 30.3324 48.9918 30.3324ZM46.3668 51.3324C45.748 51.3324 45.1545 51.0866 44.7169 50.649C44.2793 50.2114 44.0335 49.6179 44.0335 48.9991V40.8324H35.8668C35.248 40.8324 34.6545 40.5866 34.2169 40.149C33.7793 39.7114 33.5335 39.1179 33.5335 38.4991C33.5335 37.8803 33.7793 37.2868 34.2169 36.8492C34.6545 36.4116 35.248 36.1658 35.8668 36.1658H46.3668C46.9856 36.1658 47.5791 36.4116 48.0167 36.8492C48.4543 37.2868 48.7001 37.8803 48.7001 38.4991V48.9991C48.7001 49.6179 48.4543 50.2114 48.0167 50.649C47.5791 51.0866 46.9856 51.3324 46.3668 51.3324Z" fill="#00AA30"/>
<path d="M27.9974 51.3337C21.8113 51.3262 15.8807 48.8655 11.5064 44.4913C7.13218 40.1171 4.67147 34.1864 4.66406 28.0003C4.66406 27.3815 4.9099 26.788 5.34748 26.3504C5.78506 25.9128 6.37856 25.667 6.9974 25.667C7.61623 25.667 8.20973 25.9128 8.64731 26.3504C9.0849 26.788 9.33073 27.3815 9.33073 28.0003C9.32895 32.1081 10.683 36.1015 13.1828 39.3611C15.6827 42.6206 19.1884 44.9639 23.1561 46.0274C27.1238 47.0908 31.3316 46.815 35.1265 45.2426C38.9214 43.6703 42.0912 40.8893 44.1441 37.3313C44.2976 37.0661 44.5018 36.8338 44.7451 36.6475C44.9885 36.4612 45.2661 36.3247 45.5622 36.2457C45.8582 36.1667 46.167 36.1469 46.4707 36.1872C46.7745 36.2275 47.0674 36.3273 47.3326 36.4808C47.5978 36.6343 47.8301 36.8386 48.0164 37.0819C48.2027 37.3252 48.3392 37.6029 48.4182 37.8989C48.4971 38.195 48.517 38.5037 48.4767 38.8075C48.4364 39.1113 48.3366 39.4041 48.1831 39.6693C46.1309 43.2078 43.1874 46.1467 39.6457 48.1933C36.104 50.2398 32.0878 51.3226 27.9974 51.3337Z" fill="#00AA30"/>
</svg>
