<svg width="57" height="56" viewBox="0 0 57 56" fill="none" xmlns="http://www.w3.org/2000/svg">
<path d="M49.5 38.7847V17.2159C49.4983 16.9043 49.4145 16.5987 49.2571 16.3299C49.0996 16.0611 48.874 15.8385 48.6031 15.6846L29.3531 4.85652C29.0937 4.70677 28.7995 4.62793 28.5 4.62793C28.2005 4.62793 27.9063 4.70677 27.6469 4.85652L8.39687 15.6846C8.12595 15.8385 7.90039 16.0611 7.74293 16.3299C7.58547 16.5987 7.50167 16.9043 7.5 17.2159V38.7847C7.50167 39.0962 7.58547 39.4018 7.74293 39.6706C7.90039 39.9395 8.12595 40.1621 8.39687 40.3159L27.6469 51.144C27.9063 51.2938 28.2005 51.3726 28.5 51.3726C28.7995 51.3726 29.0937 51.2938 29.3531 51.144L48.6031 40.3159C48.874 40.1621 49.0996 39.9395 49.2571 39.6706C49.4145 39.4018 49.4983 39.0962 49.5 38.7847V38.7847Z" stroke="#E3BB59" stroke-width="3.5" stroke-linecap="round" stroke-linejoin="round"/>
<path d="M39.2188 33.3594V21.9844L18 10.2812" stroke="#E3BB59" stroke-width="3.5" stroke-linecap="round" stroke-linejoin="round"/>
<path d="M49.2687 16.3174L28.7062 27.9986L7.75 16.3174" stroke="#E3BB59" stroke-width="3.5" stroke-linecap="round" stroke-linejoin="round"/>
<path d="M28.6969 28L28.5 51.3625" stroke="#E3BB59" stroke-width="3.5" stroke-linecap="round" stroke-linejoin="round"/>
</svg>
