<svg width="56" height="56" viewBox="0 0 56 56" fill="none" xmlns="http://www.w3.org/2000/svg">
<path d="M11.6667 18.6667H7V42H49V18.6667H45.5M36.1667 16.3333C37.0799 16.8614 37.8619 17.589 38.4543 18.4618C39.0468 19.3345 39.4343 20.3299 39.588 21.3735C39.7416 22.4172 39.6574 23.482 39.3417 24.4885C39.0259 25.495 38.4868 26.4171 37.7645 27.1859C37.0423 27.9548 36.1556 28.5504 35.1708 28.9284C34.186 29.3064 33.1284 29.4569 32.0773 29.3687C31.0261 29.2804 30.0085 28.9558 29.1004 28.419C28.1923 27.8822 27.4173 27.1471 26.8333 26.2687M30.3333 14C30.3333 15.8565 29.5958 17.637 28.2831 18.9497C26.9703 20.2625 25.1898 21 23.3333 21C21.4768 21 19.6963 20.2625 18.3836 18.9497C17.0708 17.637 16.3333 15.8565 16.3333 14C16.3333 12.1435 17.0708 10.363 18.3836 9.05025C19.6963 7.7375 21.4768 7 23.3333 7C25.1898 7 26.9703 7.7375 28.2831 9.05025C29.5958 10.363 30.3333 12.1435 30.3333 14Z" stroke="#2176BD" stroke-width="4.66667" stroke-linecap="round" stroke-linejoin="round"/>
</svg>
